<svg id="Camada_1" data-name="Camada 1" xmlns="http://www.w3.org/2000/svg" xmlns:xlink="http://www.w3.org/1999/xlink" viewBox="0 0 486.66 286"><defs><style>.cls-1{fill:url(#Gradiente_sem_nome_14);}.cls-2{stroke:#ef5825;stroke-miterlimit:10;fill:url(#Gradiente_sem_nome_14-2);}</style><linearGradient id="Gradiente_sem_nome_14" x1="442" y1="384" x2="923" y2="384" gradientUnits="userSpaceOnUse"><stop offset="0" stop-color="#ef5825"/><stop offset="0.15" stop-color="#e64f2b"/><stop offset="0.39" stop-color="#cf353b"/><stop offset="0.7" stop-color="#a90c55"/><stop offset="0.76" stop-color="#a1035b"/></linearGradient><linearGradient id="Gradiente_sem_nome_14-2" x1="0.58" y1="62.02" x2="20.16" y2="62.02" xlink:href="#Gradiente_sem_nome_14"/></defs><path class="cls-1" d="M916,484h7v4h-7ZM451,520V241h-9V527H923v-7H451Zm465-44h7v-3h-7Zm0-13v2h7v-2Zm0,51h7v-6h-7Zm0-14h7v-4h-7ZM572,241h-2v8h2Zm-59,0h-6v8h6Zm-14,0h-8v8h8Zm-32,0h-8v8h8Zm16,0h-8v8h8Zm68,0h-4v8h4Zm11,0h-3v8h3Zm-23,0h-4v8h4Zm-12,0h-6v8h6Z" transform="translate(-436.34 -241)"/><polygon class="cls-2" points="15.27 53.54 5.47 53.54 0.58 62.02 5.47 70.5 15.27 70.5 20.16 62.02 15.27 53.54"/></svg>