<svg id="Camada_1" data-name="Camada 1" xmlns="http://www.w3.org/2000/svg" xmlns:xlink="http://www.w3.org/1999/xlink" viewBox="0 0 874.36 180.2"><defs><style>.cls-1,.cls-3{fill:#fff;}.cls-2{fill:url(#linear-gradient);}.cls-3{font-size:47px;stroke:#fff;stroke-miterlimit:10;font-family:MetroDF;}.cls-4{letter-spacing:0.04em;}.cls-5{letter-spacing:0em;}.cls-6{letter-spacing:0.03em;}</style><linearGradient id="linear-gradient" x1="398.11" y1="638.36" x2="590.17" y2="638.36" gradientUnits="userSpaceOnUse"><stop offset="0" stop-color="#f15a24"/><stop offset="1" stop-color="#9e005d"/></linearGradient></defs><g id="Exothium"><path class="cls-1" d="M663.35,658c-8.74,0-15-.74-19.08-2.27a16.22,16.22,0,0,1-9.87-9.77c-1.53-4.11-2.28-10.36-2.28-19.1,0-9.35.65-15.9,2-20a16.23,16.23,0,0,1,9.49-10.7c4.24-1.78,10.75-2.65,19.92-2.65h13.31c10.94,0,19,1.64,23.95,4.88,4.7,3,7.19,7.69,7.43,13.85H694.39c-.26-2.36-1.5-3.73-4-4.51-2.1-.62-6.93-.94-14-.94H664.12c-10.16,0-13.61,1.25-14.77,2-1.91,1.25-3.07,4.15-3.46,8.62l-.1,1.09h40.72v12.85H645.75l0,1.05c.34,6.84,2,9.45,3.39,10.44,1.08.78,4.42,2.09,14.68,2.09h12.61c7.31,0,12-.31,14.08-.93a4.87,4.87,0,0,0,3.93-4.73l13.9,0c-.22,7.94-3.12,13.28-8.63,15.87-4.08,2-11.42,2.94-23.1,2.94Z" transform="translate(-398.11 -552.55)"/><polygon class="cls-1" points="382.26 105.41 356.78 79.93 332.05 105.41 312.46 105.41 345.99 71.51 316.18 41.14 335.21 41.14 357.19 63.29 379.26 41.14 397.48 41.14 368.04 71.5 401.48 105.41 382.26 105.41"/><path class="cls-1" d="M832.21,658c-8.74,0-15-.74-19.08-2.27a15.88,15.88,0,0,1-9.87-9.79c-1.53-4.16-2.28-10.43-2.28-19.17,0-9.22.62-15.7,1.9-19.83a16.52,16.52,0,0,1,9.56-10.81c4.24-1.84,10.76-2.74,19.95-2.74h11c9.84,0,16.79,1,21.26,3.12,4.71,2.21,7.81,6.19,9.22,11.82,1.09,4,1.61,10.81,1.61,20.93,0,8.42-1,14.49-3.05,18.56a16.53,16.53,0,0,1-10.89,8.56c-3.82,1.09-9.78,1.62-18.23,1.62Zm.78-50.47c-10.21,0-13.43,1.34-14.44,2.14-1.19,1-3.17,4-3.17,13.58V629c0,8.82,1.75,12,3.23,13.14.79.58,3.72,1.9,14.12,1.9h10.38a66.14,66.14,0,0,0,11.49-.64,6.51,6.51,0,0,0,4.92-3.42c1-2.08,1.55-5.8,1.55-11.06v-5.75c0-5.4-.52-9.22-1.53-11.36a6.52,6.52,0,0,0-4.86-3.56c-2-.48-5.93-.72-11.74-.72Z" transform="translate(-398.11 -552.55)"/><polygon class="cls-1" points="509.37 105.41 509.37 54.42 482.33 54.42 482.33 41.14 550.8 41.14 550.8 54.42 523.68 54.42 523.68 105.41 509.37 105.41"/><polygon class="cls-1" points="615.37 105.41 615.37 78.89 574.57 78.89 574.57 105.41 560.26 105.41 560.26 41.14 574.57 41.14 574.57 65.69 615.37 65.69 615.37 41.14 629.68 41.14 629.68 105.41 615.37 105.41"/><rect class="cls-1" x="644.89" y="41.14" width="14.31" height="64.26"/><path class="cls-1" d="M1099.38,658c-8.8,0-15.8-2.36-20.8-7s-7.6-11.54-7.6-20.34V593.7h14.31v38.18c0,4.24,1.19,7.29,3.74,9.6s6,3.46,10.35,3.46H1112c4.32,0,7.8-1.16,10.35-3.46s3.74-5.42,3.74-9.6V593.7h14.31v36.89c0,8.8-2.56,15.64-7.6,20.34s-12,7-20.8,7Z" transform="translate(-398.11 -552.55)"/><path class="cls-1" d="M1250.89,658l-.09-33c0-5.79-1.15-10.15-3.41-13-2.77-3.45-7.53-5.22-14.15-5.24-6.85,0-11.58,1.89-14.07,5.54-1.44,2.15-3.16,6.79-3.16,16.7v29h-13.62V629.65c0-7.64-1.11-13.28-3.3-16.77-2.6-4.15-7.08-6.16-13.71-6.16-6.93,0-11.56,2-14.16,6.09-2.18,3.42-3.28,9.18-3.28,17.1L1168,658H1153.8V593.7h14.14v4.61l1.53-1c3.85-2.42,8.74-3.65,14.53-3.65h2.67c9.5,0,16.7,2.91,21.39,8.64l.77.94.77-.93c4.75-5.74,11.9-8.65,21.27-8.65h4.38c18.92,0,28.91,10.86,28.91,31.4V658Z" transform="translate(-398.11 -552.55)"/></g><path id="Icon" class="cls-2" d="M506.72,616l60.29.33-13.47-22.24-71.21-.34a10.06,10.06,0,0,1-8.75-5,9.74,9.74,0,0,1,8.51-14.52l59.53.13-13.21-21.81-50.47,0c-.54,0-1.07,0-1.6,0a28.33,28.33,0,0,0-23.26,15.14l-.75,1.41a28.25,28.25,0,0,0-.29,26.61c.23.41.46.82.7,1.23l26.47,44.32a10.43,10.43,0,0,1,.26,10.46A10.11,10.11,0,0,1,462,652l-28.59-47.51-12.38,23.15L455.2,684.7a10.37,10.37,0,0,1,.28,10.4,10.05,10.05,0,0,1-17.37.2l-28.11-47-11.89,22.23L422,710.34a29.45,29.45,0,0,0,8.94,9.4,27.88,27.88,0,0,0,15.47,4.43h1.67A27.88,27.88,0,0,0,464,719.35a29.21,29.21,0,0,0,9.06-10.2l24.7-45.8a10.9,10.9,0,0,1,9.4-5.85,10.63,10.63,0,0,1,9.42,15.73L488.73,724,514,724l33.45-61.06a10.29,10.29,0,0,1,8.87-5.47,10,10,0,0,1,8.86,14.85l-28.3,51.61,24.79-.07,13.76-25.14,11.15-20.54a29.37,29.37,0,0,0-25.77-43.38l-54.48-.07a9.39,9.39,0,0,1-8.23-4.92C494.7,623.51,499.6,615.92,506.72,616Z" transform="translate(-398.11 -552.55)"/><text class="cls-3" transform="translate(228.51 170.07)">mo<tspan class="cls-4" x="111.72" y="0">r</tspan><tspan class="cls-5" x="152.84" y="0">e than ga</tspan><tspan class="cls-6" x="490.63" y="0">m</tspan><tspan x="559.95" y="0">es</tspan></text></svg>