<svg xmlns="http://www.w3.org/2000/svg" xmlns:xlink="http://www.w3.org/1999/xlink" viewBox="0 0 192.06 171.61"><defs><style>.cls-1{fill:url(#linear-gradient);}</style><linearGradient id="linear-gradient" y1="85.81" x2="192.06" y2="85.81" gradientUnits="userSpaceOnUse"><stop offset="0" stop-color="#f15a24"/><stop offset="1" stop-color="#9e005d"/></linearGradient></defs><g id="Layer_2" data-name="Layer 2"><g id="Layer_1-2" data-name="Layer 1"><path id="Icon" class="cls-1" d="M108.61,63.4l60.28.33L155.43,41.49l-71.21-.33a10.06,10.06,0,0,1-8.75-5A9.74,9.74,0,0,1,84,21.68l59.54.13L130.3,0,79.82,0c-.53,0-1.07,0-1.59,0A28.31,28.31,0,0,0,55,15.22l-.75,1.4a28.22,28.22,0,0,0-.29,26.61c.22.42.46.83.7,1.24L81.1,88.79a10.43,10.43,0,0,1,.26,10.46,10.11,10.11,0,0,1-17.44.2L35.33,51.94,23,75.08l34.14,57.07a10.4,10.4,0,0,1,.28,10.4,10.06,10.06,0,0,1-17.38.19l-28.1-47L0,118l23.91,39.78a29.25,29.25,0,0,0,8.94,9.4,27.8,27.8,0,0,0,15.47,4.43H50a28,28,0,0,0,15.88-4.81,29,29,0,0,0,9.06-10.21l24.71-45.8a10.92,10.92,0,0,1,9.39-5.85,10.63,10.63,0,0,1,9.42,15.73L90.62,171.49l25.26-.07,33.45-61.07a10.28,10.28,0,0,1,8.87-5.46,10,10,0,0,1,8.86,14.85l-28.3,51.61,24.78-.07,13.76-25.14,11.16-20.54a29.37,29.37,0,0,0-25.77-43.39l-54.48-.07A9.36,9.36,0,0,1,100,77.22C96.59,71,101.49,63.36,108.61,63.4Z"/></g></g></svg>