<svg id="Camada_1" data-name="Camada 1" xmlns="http://www.w3.org/2000/svg" xmlns:xlink="http://www.w3.org/1999/xlink" viewBox="0 0 871.07 171.61"><defs><style>.cls-1,.cls-3{fill:#fff;}.cls-2{fill:url(#linear-gradient);}.cls-3{stroke:#fff;stroke-miterlimit:10;}</style><linearGradient id="linear-gradient" x1="398.11" y1="638.36" x2="590.17" y2="638.36" gradientUnits="userSpaceOnUse"><stop offset="0" stop-color="#f15a24"/><stop offset="1" stop-color="#9e005d"/></linearGradient></defs><g id="Exothium"><path class="cls-1" d="M663.35,658c-8.74,0-15-.74-19.08-2.27a16.22,16.22,0,0,1-9.87-9.77c-1.53-4.11-2.28-10.36-2.28-19.1,0-9.35.65-15.9,2-20a16.23,16.23,0,0,1,9.49-10.7c4.24-1.78,10.75-2.65,19.92-2.65h13.31c10.94,0,19,1.64,23.95,4.88,4.7,3,7.19,7.69,7.43,13.85H694.39c-.26-2.36-1.5-3.73-4-4.51-2.1-.62-6.93-.94-14-.94H664.12c-10.16,0-13.61,1.25-14.77,2-1.91,1.25-3.07,4.15-3.46,8.62l-.1,1.09h40.72v12.85H645.75l0,1.05c.34,6.84,2,9.45,3.39,10.44,1.08.78,4.42,2.09,14.68,2.09h12.61c7.31,0,12-.31,14.08-.93a4.87,4.87,0,0,0,3.93-4.73l13.9,0c-.22,7.94-3.12,13.28-8.63,15.87-4.08,2-11.42,2.94-23.1,2.94Z" transform="translate(-398.11 -552.55)"/><polygon class="cls-1" points="382.26 105.41 356.78 79.93 332.05 105.41 312.46 105.41 345.99 71.51 316.18 41.14 335.21 41.14 357.19 63.29 379.26 41.14 397.48 41.14 368.04 71.5 401.48 105.41 382.26 105.41"/><path class="cls-1" d="M832.21,658c-8.74,0-15-.74-19.08-2.27a15.88,15.88,0,0,1-9.87-9.79c-1.53-4.16-2.28-10.43-2.28-19.17,0-9.22.62-15.7,1.9-19.83a16.52,16.52,0,0,1,9.56-10.81c4.24-1.84,10.76-2.74,19.95-2.74h11c9.84,0,16.79,1,21.26,3.12,4.71,2.21,7.81,6.19,9.22,11.82,1.09,4,1.61,10.81,1.61,20.93,0,8.42-1,14.49-3.05,18.56a16.53,16.53,0,0,1-10.89,8.56c-3.82,1.09-9.78,1.62-18.23,1.62Zm.78-50.47c-10.21,0-13.43,1.34-14.44,2.14-1.19,1-3.17,4-3.17,13.58V629c0,8.82,1.75,12,3.23,13.14.79.58,3.72,1.9,14.12,1.9h10.38a66.14,66.14,0,0,0,11.49-.64,6.51,6.51,0,0,0,4.92-3.42c1-2.08,1.55-5.8,1.55-11.06v-5.75c0-5.4-.52-9.22-1.53-11.36a6.52,6.52,0,0,0-4.86-3.56c-2-.48-5.93-.72-11.74-.72Z" transform="translate(-398.11 -552.55)"/><polygon class="cls-1" points="509.37 105.41 509.37 54.42 482.33 54.42 482.33 41.14 550.8 41.14 550.8 54.42 523.68 54.42 523.68 105.41 509.37 105.41"/><polygon class="cls-1" points="615.37 105.41 615.37 78.89 574.57 78.89 574.57 105.41 560.26 105.41 560.26 41.14 574.57 41.14 574.57 65.69 615.37 65.69 615.37 41.14 629.68 41.14 629.68 105.41 615.37 105.41"/><rect class="cls-1" x="644.89" y="41.14" width="14.31" height="64.26"/><path class="cls-1" d="M1099.38,658c-8.8,0-15.8-2.36-20.8-7s-7.6-11.54-7.6-20.34V593.7h14.31v38.18c0,4.24,1.19,7.29,3.74,9.6s6,3.46,10.35,3.46H1112c4.32,0,7.8-1.16,10.35-3.46s3.74-5.42,3.74-9.6V593.7h14.31v36.89c0,8.8-2.56,15.64-7.6,20.34s-12,7-20.8,7Z" transform="translate(-398.11 -552.55)"/><path class="cls-1" d="M1250.89,658l-.09-33c0-5.79-1.15-10.15-3.41-13-2.77-3.45-7.53-5.22-14.15-5.24-6.85,0-11.58,1.89-14.07,5.54-1.44,2.15-3.16,6.79-3.16,16.7v29h-13.62V629.65c0-7.64-1.11-13.28-3.3-16.77-2.6-4.15-7.08-6.16-13.71-6.16-6.93,0-11.56,2-14.16,6.09-2.18,3.42-3.28,9.18-3.28,17.1L1168,658H1153.8V593.7h14.14v4.61l1.53-1c3.85-2.42,8.74-3.65,14.53-3.65h2.67c9.5,0,16.7,2.91,21.39,8.64l.77.94.77-.93c4.75-5.74,11.9-8.65,21.27-8.65h4.38c18.92,0,28.91,10.86,28.91,31.4V658Z" transform="translate(-398.11 -552.55)"/></g><path id="Icon" class="cls-2" d="M506.72,616l60.29.33-13.47-22.24-71.21-.34a10.06,10.06,0,0,1-8.75-5,9.74,9.74,0,0,1,8.51-14.52l59.53.13-13.21-21.81-50.47,0c-.54,0-1.07,0-1.6,0a28.33,28.33,0,0,0-23.26,15.14l-.75,1.41a28.25,28.25,0,0,0-.29,26.61c.23.41.46.82.7,1.23l26.47,44.32a10.43,10.43,0,0,1,.26,10.46A10.11,10.11,0,0,1,462,652l-28.59-47.51-12.38,23.15L455.2,684.7a10.37,10.37,0,0,1,.28,10.4,10.05,10.05,0,0,1-17.37.2l-28.11-47-11.89,22.23L422,710.34a29.45,29.45,0,0,0,8.94,9.4,27.88,27.88,0,0,0,15.47,4.43h1.67A27.88,27.88,0,0,0,464,719.35a29.21,29.21,0,0,0,9.06-10.2l24.7-45.8a10.9,10.9,0,0,1,9.4-5.85,10.63,10.63,0,0,1,9.42,15.73L488.73,724,514,724l33.45-61.06a10.29,10.29,0,0,1,8.87-5.47,10,10,0,0,1,8.86,14.85l-28.3,51.61,24.79-.07,13.76-25.14,11.15-20.54a29.37,29.37,0,0,0-25.77-43.38l-54.48-.07a9.39,9.39,0,0,1-8.23-4.92C494.7,623.51,499.6,615.92,506.72,616Z" transform="translate(-398.11 -552.55)"/><path class="cls-3" d="M685.23,705.66q0-11.1-11.09-11.1-7.14,0-9.78,3.34-2.29,2.91-2.3,10.34v14.38h-5.22V707.87c0-4.55-.62-7.78-1.88-9.69q-2.34-3.61-8.74-3.62c-4.35,0-7.44.76-9.26,2.26q-3,2.49-3.05,8.84l0,17h-5V705.75q0-16.08,15.42-16.07a33.4,33.4,0,0,1,8.69.79,10.56,10.56,0,0,1,6.54,5.46q3.42-6.25,12.08-6.25a68,68,0,0,1,7.94.28q10.82,1.83,10.81,15.79v16.87h-5Z" transform="translate(-398.11 -552.55)"/><path class="cls-3" d="M735.1,708q0,6.57-1.55,9.65a8,8,0,0,1-5.27,4.12,39.31,39.31,0,0,1-9.68.84h-6.06q-6.91,0-10.06-1.17a7.62,7.62,0,0,1-4.75-4.7q-1.17-3.19-1.17-10.11c0-4.89.33-8.39,1-10.52a7.9,7.9,0,0,1,4.6-5.22c2.16-.94,5.66-1.41,10.48-1.41h6q7.76,0,11.16,1.6a8.07,8.07,0,0,1,4.44,5.73Q735.11,699.93,735.1,708Zm-5.64-.19v-3.15c0-3.13-.31-5.37-.94-6.7a4.68,4.68,0,0,0-3.43-2.56,34.22,34.22,0,0,0-6.68-.42H713q-6.81,0-8.6,1.41-2.16,1.74-2.16,8.32v3.15q0,6.39,2.21,8.08c1.16.84,4,1.27,8.41,1.27h5.69a36.27,36.27,0,0,0,6.53-.38,4.66,4.66,0,0,0,3.46-2.46C729.14,713.07,729.46,710.89,729.46,707.82Z" transform="translate(-398.11 -552.55)"/><path class="cls-3" d="M761.89,694.56H755a9.15,9.15,0,0,0-6.35,2.28,7.69,7.69,0,0,0-2.54,6v19.78h-5.59V689.68h5.59V694q3-4.32,8.89-4.32h6.86a15.34,15.34,0,0,1,8.93,2.35,9.33,9.33,0,0,1,3.95,7.7h-5.6Q768.57,694.57,761.89,694.56Z" transform="translate(-398.11 -552.55)"/><path class="cls-3" d="M819.42,712.89q0,6.3-4.09,8.23-3.06,1.5-12.18,1.5h-7.28q-6.92,0-10.06-1.17a7.76,7.76,0,0,1-4.75-4.7q-1.17-3.15-1.17-10.06,0-7.43,1-10.62a7.82,7.82,0,0,1,4.56-5.17c2.16-.91,5.66-1.36,10.48-1.36h7.29q8,0,11.89,2.11a7.61,7.61,0,0,1,4.09,6.16c.06.56.12,2.36.19,5.4V708H785.11c0,4.38.75,7.16,2.35,8.32,1.25.9,4.15,1.36,8.69,1.36h6.91q6.21,0,8-.57a3.9,3.9,0,0,0,3-4.23Zm-5.32-9.68c-.06-3.07-.12-4.75-.18-5-.29-1.63-1.41-2.68-3.39-3.15a38.65,38.65,0,0,0-7.52-.47h-6.72c-4.48,0-7.38.43-8.69,1.27q-2.45,1.6-2.49,7.38Z" transform="translate(-398.11 -552.55)"/><path class="cls-3" d="M865.19,694.71v16.16q0,3.76,1.93,5.36a8.2,8.2,0,0,0,4.75,1.46v4.93h-.38q-6.53,0-9.23-2.84t-2.71-9.42V694.71h-14.8v-5H882v5Z" transform="translate(-398.11 -552.55)"/><path class="cls-3" d="M920,722.62h-5.59V708.1H889.87v14.52h-5.59V689.68h5.59v13.44h24.58V689.68H920Z" transform="translate(-398.11 -552.55)"/><path class="cls-3" d="M964.65,722.62h-5.83v-2.86a13.81,13.81,0,0,1-8.93,2.91h-9.68q-7.11,0-10-1.64-3.94-2.26-4-8.79h.1q.09-6.12,4.13-8.32,2.93-1.6,9.73-1.6h11.66a13.55,13.55,0,0,1,3.15.42c1.94.44,3.22,1.13,3.85,2.07q0-5.77-1.79-7.8t-7.42-2.12h-9.31q-8.42,0-8.32,4.89h-5.73a8.74,8.74,0,0,1,5.22-8.6,19.46,19.46,0,0,1,8.65-1.69h10q8.55,0,12.17,4.46a10.9,10.9,0,0,1,2.4,7.15,10,10,0,0,1-.14,1.74ZM951.81,707.4H940.44a15.8,15.8,0,0,0-5.45.7,4.42,4.42,0,0,0-3,4.51,4,4,0,0,0,2.82,4.14,17.08,17.08,0,0,0,5.5.61h9.44q4.89,0,7-1.36a4.55,4.55,0,0,0,1.92-4.09C958.57,708.87,956.26,707.36,951.81,707.4Z" transform="translate(-398.11 -552.55)"/><path class="cls-3" d="M991.67,689.68q6.81,0,10.62,3.54t3.81,10.32v19.08h-5.59V702.84a7.81,7.81,0,0,0-2.42-6.09,9.23,9.23,0,0,0-6.42-2.19h-6.91a9.18,9.18,0,0,0-6.41,2.19,7.78,7.78,0,0,0-2.43,6.09v19.78h-5.59V703.54q0-6.76,3.81-10.32t10.62-3.54Z" transform="translate(-398.11 -552.55)"/><path class="cls-3" d="M1071,704.9v3.29q0,8.41-2.68,11.33-2.87,3.11-11.14,3.1H1047q-9,0-11.94-3.43-2.68-3.11-2.68-12.22a43.84,43.84,0,0,1,.84-10.2,8.6,8.6,0,0,1,4.3-5.64q3.23-1.7,10-1.69h9.12q6.62,0,9.77,1.6c3,1.5,4.45,4.25,4.42,8.22h-5.73a4.38,4.38,0,0,0-2.64-4.09,11.07,11.07,0,0,0-4.93-1l-5.55-.05-4.27.05c-4.39.09-7.19,1.06-8.42,2.91q-1.36,2.07-1.36,9.07a41.21,41.21,0,0,0,.33,6.58,4.9,4.9,0,0,0,2.42,3.58c1.27.68,3.42,1,6.46,1H1057q5,0,6.49-1.22,1.59-1.41,1.59-6.35h-13.91V704.9Z" transform="translate(-398.11 -552.55)"/><path class="cls-3" d="M1113.78,722.62H1108v-2.86a13.81,13.81,0,0,1-8.93,2.91h-9.69q-7.1,0-10-1.64-3.94-2.26-3.95-8.79h.1q.09-6.12,4.13-8.32,2.92-1.6,9.73-1.6H1101a13.55,13.55,0,0,1,3.15.42c1.94.44,3.22,1.13,3.85,2.07q0-5.77-1.79-7.8t-7.42-2.12h-9.31q-8.41,0-8.32,4.89h-5.73a8.74,8.74,0,0,1,5.22-8.6,19.44,19.44,0,0,1,8.64-1.69h10q8.55,0,12.17,4.46a10.9,10.9,0,0,1,2.4,7.15,10,10,0,0,1-.14,1.74Zm-12.84-15.22h-11.37a15.8,15.8,0,0,0-5.45.7,4.42,4.42,0,0,0-3,4.51,4,4,0,0,0,2.82,4.14,17.08,17.08,0,0,0,5.5.61h9.44q4.89,0,7-1.36a4.55,4.55,0,0,0,1.92-4.09C1107.7,708.87,1105.39,707.36,1100.94,707.4Z" transform="translate(-398.11 -552.55)"/><path class="cls-3" d="M1175.86,705.66q0-11.1-11.09-11.1-7.14,0-9.78,3.34-2.29,2.91-2.3,10.34v14.38h-5.22V707.87c0-4.55-.62-7.78-1.88-9.69q-2.34-3.61-8.74-3.62c-4.35,0-7.44.76-9.26,2.26q-3,2.49-3,8.84l0,17h-5V705.75q0-16.08,15.42-16.07a33.4,33.4,0,0,1,8.69.79,10.56,10.56,0,0,1,6.54,5.46q3.42-6.25,12.07-6.25a68.25,68.25,0,0,1,8,.28q10.8,1.83,10.81,15.79v16.87h-5Z" transform="translate(-398.11 -552.55)"/><path class="cls-3" d="M1226.53,712.89q0,6.3-4.09,8.23-3.06,1.5-12.17,1.5H1203q-6.92,0-10.06-1.17a7.76,7.76,0,0,1-4.75-4.7q-1.17-3.15-1.17-10.06,0-7.43,1-10.62a7.82,7.82,0,0,1,4.56-5.17c2.16-.91,5.66-1.36,10.48-1.36h7.29q8,0,11.89,2.11a7.59,7.59,0,0,1,4.09,6.16c.06.56.12,2.36.19,5.4V708h-34.31c0,4.38.75,7.16,2.35,8.32,1.25.9,4.15,1.36,8.69,1.36h6.91q6.21,0,8-.57a3.9,3.9,0,0,0,3-4.23Zm-5.31-9.68c-.07-3.07-.13-4.75-.19-5q-.42-2.45-3.39-3.15a38.65,38.65,0,0,0-7.52-.47h-6.72c-4.48,0-7.38.43-8.69,1.27q-2.45,1.6-2.49,7.38Z" transform="translate(-398.11 -552.55)"/><path class="cls-3" d="M1268.69,712.94q0,5.46-2.82,7.71-2.49,2-8,2h-16.5q-10.86,0-10.81-9.35h5.69q0,4.32,6.11,4.32h14.24a9.41,9.41,0,0,0,4.42-.8,4,4,0,0,0,1.93-3.85c0-2.1-1.12-3.52-3.34-4.28a19.23,19.23,0,0,0-6-.7c-1.07,0-2.65,0-4.75.12s-3.68.11-4.75.11c-4.16,0-7.3-.51-9.39-1.55q-4.38-2.21-4.38-7.8c0-3.38,1-5.81,3-7.28,1.72-1.26,4.36-1.88,7.9-1.88h15.7q11.6,0,11.6,9.3h-5.92q0-4.32-6.2-4.32h-14.81q-5.11,0-5.12,4.27,0,4.47,9.35,4.47c1,0,2.42,0,4.35-.16s3.38-.17,4.35-.17q6.39,0,9.68,1.74Q1268.69,707.17,1268.69,712.94Z" transform="translate(-398.11 -552.55)"/></svg>