<svg id="Logo" xmlns="http://www.w3.org/2000/svg" xmlns:xlink="http://www.w3.org/1999/xlink" viewBox="0 0 739.94 482.68"><defs><style>.cls-1{fill:url(#Gradiente_sem_nome_28);}.cls-2{fill:url(#Gradiente_sem_nome_28-2);}.cls-3{fill:url(#Gradiente_sem_nome_28-3);}.cls-4{fill:#fff;stroke:#fff;stroke-miterlimit:10;}</style><linearGradient id="Gradiente_sem_nome_28" x1="442" y1="504" x2="684" y2="504" gradientUnits="userSpaceOnUse"><stop offset="0" stop-color="#ef5825"/><stop offset="1" stop-color="#a1035b"/></linearGradient><linearGradient id="Gradiente_sem_nome_28-2" x1="523.95" y1="497" x2="551.76" y2="497" xlink:href="#Gradiente_sem_nome_28"/><linearGradient id="Gradiente_sem_nome_28-3" x1="573.95" y1="497" x2="601.76" y2="497" xlink:href="#Gradiente_sem_nome_28"/></defs><path class="cls-1" d="M684,397s0-25.31-25.62-29.42L659,367H467l-.28.72C442,372.26,442,397,442,397V579s0,30,33,30H626l-6.5-24.67L684,641ZM643.77,525.44c-11.66,16.64-36.28,21.67-42.93,20-6.67-8.33-7.66-10.64-7.66-10.64s18.39-7.72,23-16.21C606.31,523.83,597,533,567,534h-8c-30-1-39-10.17-48.93-15.4,4.62,8.49,23.23,16.15,23.23,16.15s-1,2.34-7.63,10.67c-6.65,1.66-31.27-3.35-42.92-20-3-36.62,16.67-75,16.67-75,2.5-11.91,40.19-24,43.61-18.44-1.16,3.42-18.78,4.17-35.33,18.08,15.61-10.13,39.78-13,51.61-13.83l3.85-.2h.06l3.94.2c11.83.82,36,3.7,51.63,13.83-16.55-13.91-34.15-14.65-35.32-18.07,3.42-5.58,41.13,6.53,43.62,18.44C627.09,450.46,646.77,488.81,643.77,525.44Z" transform="translate(-177.59 -367)"/><path class="cls-2" d="M538.35,481.61c-9.06,0-14.4,6.34-14.4,15.39s5.34,15.39,14.4,15.39S551.76,501,551.76,497C551.76,492.12,547.41,481.61,538.35,481.61Z" transform="translate(-177.59 -367)"/><path class="cls-3" d="M587.35,481.61c-9.06,0-13.4,10.51-13.4,15.39,0,4,4.34,15.39,13.4,15.39s14.41-6.34,14.41-15.39S596.41,481.61,587.35,481.61Z" transform="translate(-177.59 -367)"/><path class="cls-4" d="M325.24,781.53v12.56q0,32.13-10.23,43.25-11,11.85-42.53,11.84H233.9q-34.46,0-45.58-13.1-10.23-11.83-10.23-46.65,0-26.91,3.23-38.94,4.13-15.07,16.42-21.53t38.31-6.46h34.81q25.31,0,37.33,6.1,17,8.61,16.87,31.4h-21.9q0-10.41-10-15.61-7.55-3.76-18.85-3.77l-21.17-.18q-3.4,0-16.33.18-25.12.54-32.12,11.13-5.21,7.89-5.2,34.63,0,18.84,1.25,25.12,2,9.69,9.24,13.64t24.68,4h37.32q19.2,0,24.76-4.67,6.1-5.38,6.11-24.22H249.69V781.53Z" transform="translate(-177.59 -367)"/><path class="cls-4" d="M495.52,812q0,24-15.61,31.4-11.67,5.74-46.47,5.74H405.62q-26.37,0-38.4-4.48a29.6,29.6,0,0,1-18.12-18q-4.49-12-4.49-38.4,0-28.35,3.95-40.55Q353,733.45,366,728.06q12.38-5.2,40-5.2h27.81q33.21,0,47.74,9.51,13.64,8.79,13.63,27.45H474.89q0-12-11.49-15.61-7.35-2.16-30.5-2.15H407.24q-25.67,0-33.2,4.84-9.33,6.11-9.51,28.35v18.13q-.18,25.13,9,31.76,7.19,5.21,33.2,5.2h26.38q23.69,0,30.68-2.15,11.49-3.41,11.31-16.15Zm-45.75-18.66h-85.6l.18-18.31h85.42Z" transform="translate(-177.59 -367)"/><path class="cls-4" d="M635.13,742.6h-56.7V849.18H557.07V742.6H500.55V723.39H635.13Z" transform="translate(-177.59 -367)"/><path class="cls-4" d="M755.36,849.18H734V723.39h21.36Z" transform="translate(-177.59 -367)"/><path class="cls-4" d="M895.68,849.18V773.64q0-14.89-9.24-23.24t-24.5-8.34h-26.2q-14.54,0-24.22,8.7t-9.69,22.88v75.54H780.48V723.39h21.35V739.9q11.48-16.5,33.91-16.51h26.2q26,0,40.56,13.55T917,776.33v72.85Z" transform="translate(-177.59 -367)"/></svg>