<svg id="Capa_1" data-name="Capa 1" xmlns="http://www.w3.org/2000/svg" xmlns:xlink="http://www.w3.org/1999/xlink" viewBox="0 0 147.12 204.38"><defs><style>.cls-1{fill:url(#Exothium-gradient);}</style><linearGradient id="Exothium-gradient" x1="28.63" y1="102.19" x2="175.75" y2="102.19" gradientUnits="userSpaceOnUse"><stop offset="0" stop-color="#eb5b27"/><stop offset="1" stop-color="#82368c"/></linearGradient></defs><path class="cls-1" d="M110.4,47.74V0H33.13a4.51,4.51,0,0,0-4.5,4.5V199.88a4.51,4.51,0,0,0,4.5,4.5H171.25a4.51,4.51,0,0,0,4.5-4.5V61.35H124A13.62,13.62,0,0,1,110.4,47.74Zm-1.9,120.89H62v-10h46.5Zm35-25H62v-10h81.5Zm0-25H62v-10h81.5Zm0-25H62v-10h81.5ZM120.4,47.74V10.4l43.8,41H124A3.61,3.61,0,0,1,120.4,47.74Z" transform="translate(-28.63)"/></svg>