<?xml version="1.0" standalone="no"?>
<!DOCTYPE svg PUBLIC "-//W3C//DTD SVG 20010904//EN"
 "http://www.w3.org/TR/2001/REC-SVG-20010904/DTD/svg10.dtd">
<svg version="1.0" xmlns="http://www.w3.org/2000/svg"
 width="768.000000pt" height="768.000000pt" viewBox="0 0 768.000000 768.000000"
 preserveAspectRatio="xMidYMid meet">
<metadata>
Created by potrace 1.14, written by Peter Selinger 2001-2017
</metadata>
<g transform="translate(0.000000,768.000000) scale(0.100000,-0.100000)"
fill="#000000" stroke="none">
<path d="M3025 7259 c-16 -5 -44 -10 -60 -12 -17 -2 -35 -6 -40 -9 -9 -5 -59
-18 -70 -18 -10 -1 -162 -69 -200 -90 -68 -38 -142 -90 -182 -126 -21 -20 -42
-39 -48 -42 -13 -9 -94 -99 -125 -140 -14 -18 -46 -70 -72 -115 -26 -45 -52
-87 -58 -94 -5 -7 -10 -17 -10 -22 0 -5 -9 -25 -20 -44 -18 -30 -57 -130 -65
-167 -1 -8 -8 -33 -13 -55 -21 -78 -26 -131 -27 -255 0 -144 14 -255 42 -330
3 -8 7 -19 8 -25 14 -53 63 -159 120 -253 13 -22 117 -198 130 -220 6 -9 64
-107 130 -217 66 -110 125 -209 131 -220 10 -19 145 -244 164 -275 5 -8 37
-62 71 -120 34 -58 74 -123 88 -145 14 -22 26 -42 26 -45 0 -3 8 -16 17 -30
51 -80 88 -141 88 -145 0 -4 45 -81 110 -185 114 -184 142 -256 142 -357 -1
-161 -80 -290 -222 -360 -66 -34 -66 -33 -165 -38 -99 -4 -179 19 -250 73 -51
39 -115 114 -141 167 -15 31 -32 60 -64 110 -11 17 -29 46 -40 65 -11 19 -29
49 -40 65 -11 17 -23 37 -27 45 -4 8 -35 61 -70 117 -35 57 -63 107 -63 112 0
6 -6 14 -14 18 -8 4 -15 11 -15 16 -1 8 -22 46 -51 92 -10 17 -25 41 -33 55
-7 14 -91 153 -185 309 -95 156 -172 288 -172 293 0 4 -4 8 -9 8 -5 0 -11 8
-14 18 -4 9 -18 35 -31 57 -14 22 -33 55 -43 73 -9 17 -20 32 -24 32 -4 0 -10
11 -13 25 -4 14 -11 25 -16 25 -6 0 -10 5 -10 11 0 7 -32 64 -72 128 -39 64
-78 129 -86 144 -13 27 -15 28 -27 9 -16 -22 -45 -75 -127 -232 -33 -63 -73
-137 -88 -165 -15 -27 -48 -88 -73 -135 -24 -47 -62 -116 -82 -155 -124 -232
-117 -216 -102 -239 8 -11 35 -57 61 -101 55 -94 58 -98 114 -187 23 -38 42
-70 42 -73 0 -3 12 -24 27 -48 45 -69 63 -101 69 -119 4 -10 10 -18 14 -18 4
0 11 -11 14 -25 4 -14 11 -25 16 -25 6 0 10 -4 10 -9 0 -5 71 -128 158 -273
87 -144 212 -353 278 -463 65 -110 122 -201 126 -203 5 -2 8 -8 8 -12 0 -5 80
-143 178 -307 98 -164 185 -309 193 -323 8 -14 16 -27 19 -30 3 -3 17 -27 32
-55 80 -151 67 -328 -32 -454 -37 -47 -130 -121 -130 -104 0 4 -4 3 -8 -3 -12
-18 -73 -36 -140 -41 -65 -5 -188 12 -198 28 -3 5 -20 15 -37 23 -18 8 -50 31
-73 52 -40 38 -114 145 -114 164 0 6 -4 10 -9 10 -5 0 -11 8 -14 18 -6 18 -38
74 -48 82 -3 3 -9 12 -12 20 -4 8 -18 33 -32 55 -14 22 -30 49 -35 60 -6 11
-19 34 -30 50 -11 17 -27 44 -36 60 -9 17 -23 38 -32 48 -8 9 -12 17 -9 17 3
0 -9 22 -26 49 -41 64 -91 145 -92 151 -1 6 -51 87 -92 151 -17 27 -30 49 -27
49 3 0 -3 12 -14 28 -11 15 -92 149 -181 297 -88 149 -165 275 -171 282 -5 7
-10 14 -10 17 0 3 -32 57 -70 121 -39 64 -70 120 -70 125 0 4 -4 10 -8 12 -4
2 -20 25 -36 51 -15 27 -29 47 -30 45 -5 -5 -98 -180 -130 -243 -17 -33 -33
-62 -36 -65 -3 -3 -26 -43 -50 -90 -24 -47 -56 -106 -72 -132 -15 -27 -25 -48
-22 -48 4 0 2 -6 -4 -12 -11 -15 -27 -43 -106 -190 l-57 -107 18 -28 c10 -15
21 -30 25 -33 4 -3 11 -15 15 -26 4 -11 44 -79 88 -152 44 -73 85 -141 90
-150 46 -78 91 -150 103 -164 8 -10 12 -18 8 -18 -4 0 4 -15 18 -33 15 -19 26
-37 26 -40 0 -9 64 -112 73 -115 4 -2 7 -8 7 -12 0 -5 32 -61 70 -124 39 -64
70 -118 70 -120 0 -3 17 -31 38 -63 20 -32 42 -67 49 -78 80 -133 110 -184
122 -208 7 -15 17 -27 22 -27 5 0 9 -4 9 -10 0 -13 134 -237 160 -267 11 -13
20 -25 20 -28 0 -8 50 -65 112 -126 142 -141 302 -230 513 -288 76 -20 111
-24 285 -27 165 -3 192 0 339 30 26 6 87 24 111 33 8 4 17 7 20 8 13 3 107 46
120 55 8 5 34 19 58 31 23 13 42 26 42 31 0 4 7 8 15 8 8 0 15 3 15 8 0 4 11
14 24 22 14 8 46 36 73 61 121 117 179 194 268 364 32 61 61 115 66 120 4 6
26 46 49 89 23 44 54 102 69 130 16 28 50 92 76 141 26 50 65 121 86 158 22
38 39 70 39 73 0 2 34 64 75 139 41 74 75 137 75 139 0 2 17 35 39 73 21 37
60 109 86 158 26 50 59 110 73 135 13 25 43 81 67 125 23 44 67 125 96 180 30
55 60 112 67 126 24 46 85 110 142 148 117 80 259 96 385 46 38 -16 76 -33 84
-39 41 -30 121 -120 140 -157 48 -91 60 -217 32 -317 -13 -47 -109 -235 -123
-240 -4 -2 -8 -12 -8 -22 0 -10 -3 -20 -8 -22 -4 -1 -25 -37 -46 -78 -22 -41
-42 -77 -45 -80 -6 -5 -50 -88 -115 -215 -17 -33 -34 -62 -37 -65 -4 -3 -23
-36 -43 -75 -19 -38 -56 -106 -81 -150 -25 -44 -54 -98 -65 -120 -11 -22 -25
-47 -30 -55 -6 -8 -41 -71 -78 -140 -38 -69 -83 -152 -102 -185 -55 -100 -74
-136 -130 -240 -29 -55 -59 -107 -66 -116 -8 -8 -14 -23 -14 -31 0 -9 -3 -18
-7 -20 -5 -1 -17 -19 -27 -38 -41 -76 -116 -219 -116 -222 0 -2 225 -3 501 -3
l501 1 26 50 c15 27 29 51 32 54 3 3 13 20 23 38 20 39 104 196 124 232 38 69
73 133 117 215 27 50 52 95 56 100 8 11 67 119 109 200 14 28 28 52 31 55 3 3
13 21 24 40 31 59 98 183 118 218 10 19 39 73 65 120 25 48 49 92 53 97 8 11
118 212 166 305 16 30 31 57 34 60 3 3 15 25 28 50 36 69 66 124 72 130 3 3
14 23 25 45 11 22 35 67 53 100 19 33 57 103 85 155 90 168 138 244 177 281
224 210 579 116 665 -176 13 -45 16 -79 12 -136 -7 -86 -20 -120 -106 -273
-33 -59 -66 -121 -73 -137 -7 -16 -16 -29 -20 -29 -5 0 -8 -4 -8 -9 0 -6 -23
-52 -51 -103 -28 -51 -65 -118 -82 -148 -16 -30 -45 -82 -63 -115 -18 -33 -42
-76 -52 -95 -47 -90 -177 -326 -182 -330 -3 -3 -25 -43 -49 -90 -25 -47 -55
-102 -68 -122 -13 -21 -20 -38 -17 -38 4 0 0 -8 -8 -17 -8 -10 -39 -63 -69
-118 -30 -54 -61 -111 -69 -127 -8 -15 -27 -48 -41 -75 -26 -49 -70 -129 -106
-193 -11 -19 -35 -64 -54 -100 -18 -36 -36 -67 -39 -70 -4 -3 -9 -13 -13 -23
-6 -16 0 -18 66 -18 39 1 79 1 87 1 155 -3 822 5 827 9 9 7 24 31 66 111 16
30 44 80 61 110 18 30 40 71 50 90 18 36 47 90 106 195 18 33 53 98 78 145 25
47 48 87 51 90 3 3 17 28 31 55 13 28 48 92 77 144 29 51 53 95 53 96 0 2 17
34 39 72 44 78 94 170 159 293 25 47 59 110 76 140 18 30 40 71 49 90 10 19
36 67 57 105 139 246 184 405 183 640 0 143 -2 161 -24 262 -14 65 -14 62 -21
83 -3 8 -14 38 -23 65 -39 110 -162 325 -186 325 -5 0 -9 5 -9 12 0 11 -129
141 -179 182 -140 111 -351 203 -546 237 -52 8 -378 13 -1235 15 -641 2 -1174
5 -1185 7 -119 20 -224 100 -275 212 -50 108 -45 219 15 335 43 83 165 170
265 188 25 5 252 7 505 5 1747 -11 1973 -11 1967 6 -3 9 -20 39 -38 66 -76
120 -314 517 -314 526 0 5 -3 9 -8 9 -4 0 -12 9 -17 20 -6 11 -41 72 -78 135
l-69 115 -61 1 c-34 0 -417 2 -852 4 -1297 6 -2009 13 -2035 19 -124 29 -265
166 -289 280 -3 17 -6 69 -5 116 1 68 6 96 26 140 50 109 151 194 263 221 65
15 248 19 257 5 5 -7 8 -7 8 -1 0 11 519 13 537 2 7 -4 14 -4 16 0 3 5 40 7
84 5 94 -3 117 -3 166 1 21 1 41 -1 44 -5 2 -5 9 -6 14 -3 15 10 90 11 95 3 3
-5 10 -6 15 -3 14 9 90 12 95 4 2 -4 17 -4 32 0 15 4 43 4 62 1 19 -3 54 -3
78 1 23 3 42 3 42 0 0 -4 27 -4 60 -1 33 3 60 3 60 -1 0 -3 18 -3 40 1 22 4
40 5 40 1 0 -3 24 -5 52 -3 29 1 67 2 83 2 143 -2 595 -5 595 -3 0 1 -46 78
-103 171 -57 93 -107 175 -110 183 -4 8 -76 127 -160 264 l-153 250 -1080 2
c-608 0 -1092 -3 -1109 -8z"/>
</g>
</svg>
